<svg width="90" height="30" xmlns="http://www.w3.org/2000/svg">

 <g>
  <title>Layer 1</title>
  <path stroke="null" id="svg_1" d="m12.71118,25.48465c-1.33993,0.2353 -2.70343,0.30584 -4.1139,0.49373l-4.30214,-12.6004l0,13.14119c-1.33993,0.141 -2.56234,0.32907 -3.83181,0.51713l0,-24.07259l3.57337,0l4.88964,13.65858l0,-13.65858l3.78483,0l0,22.52094zm7.40518,-13.70529c1.45762,0 3.69089,-0.07055 5.03082,-0.07055l0,3.76126c-1.66917,0 -3.62026,0 -5.03082,0.07055l0,5.59509c2.20987,-0.141 4.41966,-0.32924 6.65284,-0.39979l0,3.62008l-10.41427,0.82297l0,-22.21527l10.41427,0l0,3.76135l-6.65284,0l0,5.0543zm20.64031,-5.05422l-3.90235,0l0,17.30215c-1.26947,0 -2.53894,0 -3.76117,0.04689l0,-17.34903l-3.90235,0l0,-3.76143l11.56605,0l-0.00017,3.76143zm6.11214,4.79569l5.14842,0l0,3.76126l-5.14842,0l0,8.53364l-3.69106,0l0,-20.85203l10.50857,0l0,3.76135l-6.8175,0l0,4.79578zm12.92964,9.00363c2.13933,0.04689 4.30196,0.21172 6.39432,0.32907l0,3.71438c-3.36165,-0.21172 -6.72338,-0.42301 -10.15558,-0.49373l0,-21.11047l3.76126,0l0,17.56076zm9.5679,4.30205c1.19892,0.07063 2.46839,0.14118 3.6908,0.28201l0,-22.14481l-3.6908,0l0,21.86281zm20.17033,-21.86281l-4.7723,11.44862l4.7723,12.62397c-1.41065,-0.18806 -2.82112,-0.44667 -4.23168,-0.68179l-2.70334,-6.95833l-2.75023,6.39432c-1.36376,-0.2353 -2.6802,-0.30584 -4.04344,-0.4939l4.84267,-11.02544l-4.37268,-11.30744l4.04327,0l2.46839,6.32377l2.63306,-6.32377l4.11399,0z" fill="#d81f26"/>
 </g>
</svg>